<svg xmlns="http://www.w3.org/2000/svg" width="203.782" height="35.831" viewBox="0 0 203.782 35.831">
  <g id="Group_2" data-name="Group 2" transform="translate(-71.74 -177.285)">
    <path id="Path_4" data-name="Path 4" d="M90.765,177.285c.732.134,1.468.25,2.2.4a17.6,17.6,0,1,1-20.849,20.874c-.151-.677-.248-1.367-.371-2.051v-3.486c.2-.227.153-.523.192-.785a17.6,17.6,0,0,1,13.683-14.534c.762-.157,1.531-.282,2.3-.422Zm-6.09,10.843-5.75-3.743-.066.109,4.039,6.194a5.887,5.887,0,0,1-3.57-1.609,2.683,2.683,0,0,0-3.4-.138,1.848,1.848,0,0,0-.732,1.132,2.085,2.085,0,0,1,2.574.1,3.061,3.061,0,0,1,.792.913,4.272,4.272,0,0,0,2.644,2.191c.017,0,.02.059.048.148l-6.835,1.419v.072l7.432,1.573a6.126,6.126,0,0,1-3.663,1.372,2.56,2.56,0,0,0-1.715.708,2.324,2.324,0,0,0-.55,2.89,2.129,2.129,0,0,1,2.108-1.746,4.807,4.807,0,0,1,1.355.193,3.906,3.906,0,0,0,2.914-.351c.066-.037.133-.129.272.024l-3.723,5.667.094.12,6.218-4.039a6.072,6.072,0,0,1-1.622,3.551,2.575,2.575,0,0,0-.691,2.084,2.1,2.1,0,0,0,1.613,2.022,2.176,2.176,0,0,1,.712-3.052,7.311,7.311,0,0,1,.7-.466,4.484,4.484,0,0,0,1.958-2.588l1.436,6.9.1-.018c.51-2.42,1.02-4.839,1.536-7.287a.828.828,0,0,1,.159.112c.086.111.169.225.244.344a6.319,6.319,0,0,1,1,3.184,2.619,2.619,0,0,0,1.844,2.393,1.923,1.923,0,0,0,1.716-.151c-1.457-.638-1.954-1.441-1.638-2.873a4.985,4.985,0,0,0-.342-3.889l5.925,3.888.063-.08-4.11-6.309a5.936,5.936,0,0,1,3.467,1.552,2.712,2.712,0,0,0,2.324.737,2.059,2.059,0,0,0,1.863-1.558,2.244,2.244,0,0,1-3.2-.968A4.454,4.454,0,0,0,97,196.474l7.191-1.485.01-.1-7.36-1.555c.143-.115.219-.184.3-.242a6.259,6.259,0,0,1,3.4-1.143,2.63,2.63,0,0,0,2.446-2.051,1.8,1.8,0,0,0-.217-1.523,2.2,2.2,0,0,1-2.529,1.709,5.507,5.507,0,0,1-.933-.17,3.866,3.866,0,0,0-3.006.4c-.078.046-.15.092-.253.013l3.808-5.8-.085-.1L93.517,188.5a6.181,6.181,0,0,1,1.641-3.578,2.7,2.7,0,0,0,.193-3.362,1.729,1.729,0,0,0-1.152-.77,2.1,2.1,0,0,1-.055,2.467,3.231,3.231,0,0,1-1.022.9,4.3,4.3,0,0,0-2.253,2.89l-1.46-7.023-.091.018-1.557,7.376a6.345,6.345,0,0,1-1.389-3.7,2.643,2.643,0,0,0-2.137-2.483,1.713,1.713,0,0,0-1.424.265,2.151,2.151,0,0,1,1.583,1.357,2.877,2.877,0,0,1,.018,1.769,4.32,4.32,0,0,0,.348,3.418Z" transform="translate(0 0)" fill="#fff"/>
    <path id="Path_5" data-name="Path 5" d="M198.439,196.183v1.722c.664-.417,1.269-.824,1.9-1.186a2.707,2.707,0,0,1,2.579-.178,2.243,2.243,0,0,1,1.161,1.107c.193.429.369.344.666.126.439-.321.911-.6,1.366-.9a2.816,2.816,0,0,1,3.087-.229,2.906,2.906,0,0,1,1.392,2.73c.03,1.6,0,3.2.026,4.805.016,1.026.133,1.15,1.159,1.319.278.046.278.186.288.394.015.279-.162.258-.342.258h-4.069c-.177,0-.348.032-.341-.252.007-.243.034-.37.329-.405,1-.121,1.157-.285,1.206-1.3a37.506,37.506,0,0,0-.007-4.484c-.132-1.865-1.4-2.581-3.1-1.8-.063.029-.125.063-.188.1a1.528,1.528,0,0,0-1.062,1.664c.137,1.573.048,3.165.074,4.748.012.725.241.973.969,1.061.288.035.448.078.426.425-.024.387-.292.233-.458.234-1.3.012-2.607.01-3.91,0-.163,0-.4.11-.406-.236-.007-.292.085-.387.377-.418.984-.107,1.186-.31,1.2-1.3a34.437,34.437,0,0,0-.074-4.9,1.788,1.788,0,0,0-2.586-1.528,5.309,5.309,0,0,0-1.453.839.488.488,0,0,0-.2.449c.011,1.76,0,3.521.026,5.281.01.811.177,1,.983,1.159.289.056.25.218.266.41.025.287-.164.249-.339.249-1.339,0-2.677,0-4.016,0-.2,0-.34-.011-.323-.274.014-.21.01-.38.3-.377a3.12,3.12,0,0,0,.572-.085.841.841,0,0,0,.744-.884c.079-1.987.065-3.975.009-5.962-.017-.612-.418-.8-.924-.883-.2-.032-.373-.02-.385-.311-.013-.314.171-.313.388-.36A13.576,13.576,0,0,0,198.439,196.183Z" transform="translate(-68.995 -10.575)" fill="#fff"/>
    <path id="Path_6" data-name="Path 6" d="M267.436,190.509a5.836,5.836,0,0,1,2.175-1.349,2.91,2.91,0,0,1,3.92,2.643c.137,1.227.032,2.462.059,3.693.012.545.017,1.09.037,1.635.028.78.228,1,.989,1.085.259.028.483.016.462.393-.023.413-.314.255-.5.257-1.233.013-2.465.016-3.7,0-.172,0-.472.2-.522-.217-.047-.391.174-.4.463-.438.676-.079.943-.282.972-.9a30.891,30.891,0,0,0-.037-5.111,2,2,0,0,0-2.768-1.8,3.168,3.168,0,0,0-.821.35,1.43,1.43,0,0,0-.834,1.428c.079,1.65.036,3.306.061,4.959.012.773.212.984.995,1.078.265.032.406.073.4.392,0,.376-.251.265-.432.266q-1.928.009-3.857,0c-.191,0-.429.09-.436-.273-.006-.333.168-.353.421-.38.851-.089,1.094-.333,1.1-1.227q.02-5.7,0-11.4c0-.811-.211-1-1.023-1.1-.188-.023-.433.062-.46-.284s.2-.327.423-.38c.786-.183,1.574-.366,2.348-.591.373-.108.5-.1.491.355-.026,2.112-.013,4.224-.008,6.337A.92.92,0,0,0,267.436,190.509Z" transform="translate(-107.624 -3.294)" fill="#fff"/>
    <path id="Path_7" data-name="Path 7" d="M176.188,200.436a7.457,7.457,0,0,1-2.866-.555.844.844,0,0,1-.586-.721q-.2-1.3-.427-2.6c-.045-.256.025-.385.288-.443s.375-.012.454.262a5.589,5.589,0,0,0,1.119,2.127,3.036,3.036,0,0,0,3.036,1.051,2.617,2.617,0,0,0,1.394-4.186A5.852,5.852,0,0,0,176.814,194a22.706,22.706,0,0,1-2.231-1.3,3.92,3.92,0,0,1-1.741-4.483,4.211,4.211,0,0,1,4.017-2.791,8.591,8.591,0,0,1,2.806.4c.169.052.327.065.353.31.089.839.191,1.677.314,2.512.047.315-.115.356-.354.435-.307.1-.323-.1-.375-.277a6.287,6.287,0,0,0-.533-1.311,2.408,2.408,0,0,0-2.457-1.3,2.149,2.149,0,0,0-2.029,1.5,2.582,2.582,0,0,0,.584,2.777,8.029,8.029,0,0,0,2.23,1.477,14.876,14.876,0,0,1,1.9,1.128,3.755,3.755,0,0,1,1.649,3.8,3.934,3.934,0,0,1-2.542,3.121A5.124,5.124,0,0,1,176.188,200.436Z" transform="translate(-56.27 -4.555)" fill="#fff"/>
    <path id="Path_8" data-name="Path 8" d="M338.145,196.2V197.9c.638-.4,1.236-.783,1.842-1.154a2.794,2.794,0,0,1,4.279,2.581c.018,1.654,0,3.308.024,4.961.012.953.14,1.1,1.059,1.224.307.041.309.189.316.418.009.294-.186.239-.353.239-1.3,0-2.605,0-3.908,0-.191,0-.348,0-.329-.266.015-.2,0-.344.286-.391.979-.163,1.087-.3,1.127-1.306.06-1.511.069-3.024,0-4.535a1.946,1.946,0,0,0-2.908-1.834c-.114.045-.219.111-.332.159a1.626,1.626,0,0,0-1.131,1.807c.1,1.489.025,2.99.048,4.485.014.934.167,1.1,1.077,1.221.292.037.332.163.334.407,0,.281-.174.252-.352.252q-2.06,0-4.12,0c-.165,0-.36.059-.351-.238.007-.235.011-.415.322-.41a3.375,3.375,0,0,0,.519-.079.83.83,0,0,0,.764-.91c.062-1.951.066-3.9,0-5.855-.022-.614-.21-.808-.907-.957-.216-.046-.4-.048-.4-.359,0-.3.184-.276.374-.316A13.81,13.81,0,0,0,338.145,196.2Z" transform="translate(-147.178 -10.585)" fill="#fff"/>
    <path id="Path_9" data-name="Path 9" d="M400.764,196.243v1.694c.551-.354,1.057-.674,1.559-1a3.065,3.065,0,0,1,2.452-.524,2.821,2.821,0,0,1,2.128,2.957c.015,1.636,0,3.273.023,4.909.014.994.116,1.109,1.083,1.256.277.042.279.177.292.386.017.265-.127.272-.324.272q-1.981-.007-3.961,0c-.168,0-.325.009-.3-.236.017-.182-.048-.359.253-.418,1.065-.208,1.106-.263,1.156-1.384.066-1.494.071-2.989-.006-4.482a1.933,1.933,0,0,0-2.828-1.84c-.115.043-.226.1-.339.146a1.7,1.7,0,0,0-1.2,1.873c.12,1.469.028,2.954.051,4.431.015.97.146,1.112,1.1,1.253.263.039.3.153.311.376.009.251-.115.284-.322.283q-2.086-.009-4.172,0c-.191,0-.346.006-.327-.265.014-.207,0-.38.292-.383a4.005,4.005,0,0,0,.622-.1.767.767,0,0,0,.681-.809c.076-2,.07-4.008,0-6.013-.018-.544-.356-.759-.824-.872-.2-.047-.466.033-.481-.34-.016-.418.3-.327.5-.37A15.7,15.7,0,0,0,400.764,196.243Z" transform="translate(-182.228 -10.609)" fill="#fff"/>
    <path id="Path_10" data-name="Path 10" d="M319.846,201.4a4.856,4.856,0,1,1-9.621-.611,5,5,0,0,1,3.806-4.227A4.754,4.754,0,0,1,319.846,201.4Zm-2.073.343c-.011-.22-.007-.557-.05-.887a4.7,4.7,0,0,0-1.307-3.029,2.19,2.19,0,0,0-3.164.088,3.7,3.7,0,0,0-.957,2.346,5.959,5.959,0,0,0,1.208,4.659,2.239,2.239,0,0,0,3.839-.592A6.543,6.543,0,0,0,317.773,201.74Z" transform="translate(-133.43 -10.717)" fill="#fff"/>
    <path id="Path_11" data-name="Path 11" d="M383.253,201.526c0,.757-.019,1.515,0,2.271.033,1.089.353,1.34,1.387,1.084.223-.055.247.059.284.185.043.146.212.3-.041.445-.551.311-1.076.67-1.637.96-.39.2-1.184-.192-1.4-.769s-.432-.5-.821-.2c-.345.268-.739.473-1.11.707a2.442,2.442,0,0,1-3.384-1.233,2.206,2.206,0,0,1,1.315-3.2c1.019-.378,2.053-.712,3.061-1.126a.907.907,0,0,0,.639-1.122c-.144-1.108-.652-1.835-1.489-2.012a1.393,1.393,0,0,0-1.614.7,4.389,4.389,0,0,0-.435,1.125.607.607,0,0,1-.605.5,1.057,1.057,0,0,1-.908-.548.612.612,0,0,1,.026-.783,3.364,3.364,0,0,1,.592-.519,12.753,12.753,0,0,1,2.418-1.275,2.634,2.634,0,0,1,3.714,2.548c.019.757,0,1.514,0,2.271Zm-1.7-.465a26.377,26.377,0,0,0-2.674,1.26,1.388,1.388,0,0,0-.609,1.734,1.457,1.457,0,0,0,1.282,1.088,2.512,2.512,0,0,0,1.953-.741c.058-.051.046-.2.046-.3C381.559,203.121,381.557,202.139,381.557,201.061Z" transform="translate(-170.41 -10.743)" fill="#fff"/>
    <path id="Path_12" data-name="Path 12" d="M295.519,196.473c1.866,0,2.431.6,2.4,2.509,0,.148-.024.214-.178.256-.24.066-.4.117-.515-.211a2.931,2.931,0,0,0-1.091-1.515,1.59,1.59,0,0,0-2.254.278,1.523,1.523,0,0,0,.551,2.181,23.644,23.644,0,0,0,2.127,1.037,3.1,3.1,0,0,1,1.644,1.7,2.712,2.712,0,0,1-1.245,3.183,4.637,4.637,0,0,1-4.541.111.787.787,0,0,1-.469-.642,13.326,13.326,0,0,1-.215-1.777c-.01-.218-.077-.414.253-.459.265-.036.359.041.443.293a3.8,3.8,0,0,0,1.087,1.718,2,2,0,0,0,2.036.542,1.513,1.513,0,0,0,.663-2.479,3.5,3.5,0,0,0-1.213-.819,9.743,9.743,0,0,1-1.8-.978,2.59,2.59,0,0,1,.39-4.5A3.792,3.792,0,0,1,295.519,196.473Z" transform="translate(-123.097 -10.737)" fill="#fff"/>
    <path id="Path_13" data-name="Path 13" d="M446.122,234.022l-3.66,6.153c-.072.121-.143.242-.219.36s-.126.311-.333.286c-.239-.028-.164-.248-.189-.376-.379-1.967-.744-3.936-1.113-5.905-.025-.133,0-.289-.188-.384-.468,1.805-1.036,3.575-1.4,5.4-.135.671-.071.723.612.887.121.029.307-.015.273.221-.029.2-.175.18-.315.18-.775,0-1.55,0-2.325,0-.092,0-.229.049-.244-.111a.215.215,0,0,1,.2-.258c.806-.037,1.026-.638,1.211-1.26.529-1.783,1.057-3.566,1.568-5.354.173-.607.063-.728-.557-.867-.151-.033-.456.075-.415-.24.034-.255.286-.148.439-.144.578.014,1.317-.241,1.688.094.338.306.281,1.047.4,1.6q.486,2.239.973,4.483c.213,0,.233-.193.308-.315q1.712-2.753,3.408-5.515a.6.6,0,0,1,.62-.356c.456.029.916,0,1.374.012.1,0,.273-.09.278.122a.185.185,0,0,1-.191.208c-1.06-.025-1.1.737-1.192,1.5-.209,1.657-.452,3.31-.68,4.964-.107.776-.057.853.688,1.051.114.03.252.024.242.209-.012.216-.165.187-.3.187-.9,0-1.8,0-2.695,0-.089,0-.236.053-.232-.115,0-.12.034-.261.2-.257.849.018.968-.589,1.064-1.226q.392-2.6.792-5.207Z" transform="translate(-204.406 -30.912)" fill="#fff"/>
    <path id="Path_14" data-name="Path 14" d="M249.931,197.449c0-1.057-.012-2.113.007-3.169.006-.322-.076-.442-.41-.41a9,9,0,0,1-.95,0c-.269,0-.316-.154-.168-.337.25-.31.491-.656.987-.547.44.1.634-.1.529-.532-.3-1.242.71-1.761,1.37-2.449.23-.24.385-.014.383.282-.006.757.017,1.515-.01,2.271-.013.359.111.452.451.438.58-.025,1.162,0,1.743-.011.273-.006.442.047.423.369-.017.291-.063.525-.435.52-.581-.008-1.163.011-1.744-.008-.3-.01-.443.045-.438.395.027,1.883.029,3.766.044,5.65a2.209,2.209,0,0,0,.226.967c.352.716.964.879,2,.457.4-.161.5-.014.541.314.008.059-.019.166-.059.184a6.565,6.565,0,0,1-2.353,1,2.035,2.035,0,0,1-2.141-2.271C249.917,199.527,249.931,198.488,249.931,197.449Z" transform="translate(-98.817 -7.064)" fill="#fff"/>
    <path id="Path_15" data-name="Path 15" d="M515.7,239.366c-.328.022-.493.28-.721.431-.081.054-.157.173-.259.042-.065-.084-.114-.2-.026-.288a3.817,3.817,0,0,1,1.565-1.125c.286-.091.418.068.429.361a4.5,4.5,0,0,1-.163,1.2,2.143,2.143,0,0,0-.07.561,18.508,18.508,0,0,1,1.51-1.464,3.587,3.587,0,0,1,1.088-.632c.521-.16.755.02.809.568a8.171,8.171,0,0,1-.141,1.449c.318-.286.673-.587,1.008-.909a5.28,5.28,0,0,1,1.4-1.021c.713-.334,1.053-.111,1.015.667a18.3,18.3,0,0,1-.584,2.833c-.085.408-.19.812-.3,1.259.342,0,.512-.218.724-.35.087-.055.145-.235.292-.083s.036.25-.067.352a4.141,4.141,0,0,1-1.318.949c-.421.171-.592.053-.616-.4a4.346,4.346,0,0,1,.2-1.243c.2-.836.414-1.669.615-2.505.06-.248.23-.569-.025-.732-.278-.177-.52.117-.724.289a5.974,5.974,0,0,0-2.323,3.987.992.992,0,0,1-.98.746c-.305-.062-.106-.3-.076-.425.282-1.249.591-2.493.873-3.743.066-.291.259-.691-.069-.865-.3-.161-.578.179-.806.381a6.005,6.005,0,0,0-2.226,3.934.936.936,0,0,1-.955.713c-.292-.057-.116-.288-.085-.421.282-1.213.586-2.421.871-3.634A2.33,2.33,0,0,0,515.7,239.366Z" transform="translate(-247.828 -34.191)" fill="#fff"/>
    <path id="Path_16" data-name="Path 16" d="M176.986,239.1c.312-1.866.706-3.576.923-5.318.067-.539-.225-.716-.691-.786-.12-.018-.367.072-.362-.173.006-.268.24-.2.4-.2.722,0,1.445-.007,2.167,0,.108,0,.308-.112.316.137,0,.165-.123.194-.252.205-.6.052-.817.446-.944.972-.526,2.188-.849,4.416-1.316,6.614-.033.153.05.369-.218.414s-.35-.148-.454-.335q-1.671-3.018-3.351-6.031c-.049-.089-.1-.176-.209-.359-.327,1.881-.766,3.632-.964,5.427a.623.623,0,0,0,.624.787c.138.018.414-.077.4.2-.018.3-.285.2-.458.2q-1.083.013-2.166,0c-.1,0-.27.082-.3-.11-.023-.174.087-.258.252-.264.638-.024.872-.464.987-.991.393-1.785.784-3.57,1.149-5.36.135-.661-.14-.985-.828-1.147-.111-.026-.373.09-.327-.2.038-.243.239-.137.378-.163a1.847,1.847,0,0,1,2.235,1.219C174.856,235.6,175.92,237.258,176.986,239.1Z" transform="translate(-55.059 -30.938)" fill="#fff"/>
    <path id="Path_17" data-name="Path 17" d="M365.864,196.217c0,2.717-.01,5.356,0,7.994.005.986.212,1.2,1.187,1.3.282.031.391.11.385.41-.007.339-.23.244-.4.244-1.373.005-2.746,0-4.119,0-.188,0-.387.052-.38-.27.006-.262.075-.355.35-.387.977-.114,1.138-.3,1.171-1.257q.1-2.742,0-5.484c-.025-.761-.17-.923-.947-1.072-.231-.044-.44-.042-.435-.385s.269-.29.44-.319A16.061,16.061,0,0,0,365.864,196.217Z" transform="translate(-162.731 -10.594)" fill="#fff"/>
    <path id="Path_18" data-name="Path 18" d="M239.619,196.222c0,1.478,0,2.9,0,4.327,0,1.179-.009,2.358.017,3.536.026,1.158.134,1.276,1.274,1.44.273.04.288.163.3.379.015.262-.12.275-.32.274q-2.139-.007-4.278,0c-.18,0-.311-.017-.292-.248.016-.188-.034-.354.266-.4,1.164-.192,1.2-.217,1.248-1.4.076-1.845.055-3.691,0-5.537-.018-.621-.428-.788-.924-.884-.216-.041-.453,0-.459-.362-.007-.381.281-.318.468-.351A15.418,15.418,0,0,0,239.619,196.222Z" transform="translate(-92.097 -10.597)" fill="#fff"/>
    <path id="Path_19" data-name="Path 19" d="M381.063,238.422c-.211.086-.419.177-.632.256-.083.031-.186.16-.259.008-.051-.106-.083-.24.057-.327a3.442,3.442,0,0,1,.317-.189c.417-.2.915-.314.933-.918,0-.015.017-.031.03-.043.292-.264.566-.72.958-.607.214.062-.107.543-.086.879.308-.026.615-.064.923-.077,1.6-.066,2.33.78,1.986,2.346a4.551,4.551,0,0,1-3.185,3.418.732.732,0,0,1-.414.041c-.534-.149-.636.164-.694.583a10.38,10.38,0,0,1-.239,1.242c-.129.489.058.694.534.722.136.008.34-.063.338.206,0,.239-.159.228-.323.233-.773.027-1.546.063-2.32.081-.112,0-.3.1-.321-.141-.015-.195.139-.241.273-.257.555-.065.758-.444.859-.924q.683-3.221,1.366-6.441c0-.041.007-.081.011-.122Zm3.2,1.1c.031-1.18-.6-1.712-1.685-1.53-.25.042-.385.109-.44.4-.211,1.137-.47,2.266-.7,3.4-.12.584.282.954.876.824a1.551,1.551,0,0,0,.792-.495A4.223,4.223,0,0,0,384.264,239.518Z" transform="translate(-171.752 -33.184)" fill="#fff"/>
    <path id="Path_20" data-name="Path 20" d="M351.891,239.17a1.9,1.9,0,0,0,.761-.429c.089-.069.172-.22.3-.088a.228.228,0,0,1-.011.363,4.242,4.242,0,0,1-1.442,1.042c-.468.18-.633.047-.643-.471-.009-.491.2-.953.228-1.534a12.518,12.518,0,0,1-1.572,1.519c-.083.065-.165.133-.254.189-.373.239-.769.525-1.217.3a1.255,1.255,0,0,1-.563-1.182,4.331,4.331,0,0,1,2.945-4.449,1.834,1.834,0,0,1,.986-.11c.38.091.524-.026.579-.407a15.5,15.5,0,0,1,.325-1.546c.1-.409-.015-.6-.454-.594-.146,0-.407.134-.435-.121-.03-.283.268-.22.433-.265.389-.106.788-.178,1.18-.276.495-.124.557-.071.443.438-.326,1.456-.671,2.908-.982,4.368C352.274,236.976,352.026,238.034,351.891,239.17Zm-3.356-.861c.029.316-.049.753.3.926s.618-.161.869-.367a4.991,4.991,0,0,0,1.97-3.406c.026-.244-.028-.343-.237-.438a1.6,1.6,0,0,0-2.123.717A5.447,5.447,0,0,0,348.535,238.309Z" transform="translate(-154.299 -30.088)" fill="#fff"/>
    <path id="Path_21" data-name="Path 21" d="M274.565,240.687c0-.236.067-.37.23-.38.691-.045.97-.561,1.256-1.071q1.788-3.193,3.575-6.386c.078-.138.15-.279.235-.412a.4.4,0,0,1,.41-.184c.161.027.1.2.115.309q.569,3.35,1.125,6.7c.089.536.208,1.016.89,1.032.144,0,.221.075.195.24-.024.15-.125.148-.231.148q-1.294,0-2.588,0c-.076,0-.2.033-.193-.1.005-.115.019-.239.185-.276.259-.059.61.015.7-.345a1.882,1.882,0,0,0-.07-.835c-.1-.458.017-1.089-.319-1.331-.3-.219-.892,0-1.335-.081a1.391,1.391,0,0,0-1.759,1.08c-.089.263-.254.5-.369.756-.242.536-.193.617.372.738.13.028.358-.049.332.221-.024.252-.224.173-.364.174C276.162,240.69,275.371,240.687,274.565,240.687Zm5.011-6.806-1.748,3.319c.683,0,1.259-.026,1.831.009.381.023.429-.125.375-.444C279.88,235.852,279.743,234.936,279.576,233.88Z" transform="translate(-113.499 -30.757)" fill="#fff"/>
    <path id="Path_22" data-name="Path 22" d="M368.53,239.086c-.01-.21-.011-.422-.034-.631-.019-.166.015-.273.2-.3s.174.129.209.234c.1.281.169.572.282.845a1.971,1.971,0,0,0,.71.9,1.6,1.6,0,0,0,2.16-2.343,4.955,4.955,0,0,0-.931-.853,6.32,6.32,0,0,1-1.062-.943,2.186,2.186,0,0,1-.428-2.4,2.266,2.266,0,0,1,2.081-1.378,4.043,4.043,0,0,1,.58,0c.5.03,1.139.075,1.363.424.277.434.066,1.085.073,1.642,0,.14-.1.166-.216.165s-.191-.035-.21-.174a3.35,3.35,0,0,0-.131-.617,1.3,1.3,0,0,0-1.1-1,1.342,1.342,0,0,0-1.361.624,1.385,1.385,0,0,0-.057,1.543,3.867,3.867,0,0,0,1.133,1.086,5.972,5.972,0,0,1,1.151,1,2.325,2.325,0,0,1-.99,3.754,3.546,3.546,0,0,1-2.768-.107c-.46-.2-.77-.476-.663-1.036a2.276,2.276,0,0,0,0-.421Z" transform="translate(-166.06 -30.727)" fill="#fff"/>
    <path id="Path_23" data-name="Path 23" d="M466.9,242.014a12.966,12.966,0,0,1-1.648,1.647,3.04,3.04,0,0,1-.953.552c-.61.185-.917-.038-.918-.68a12.607,12.607,0,0,1,.472-2.424,12.7,12.7,0,0,0,.39-1.716c-.317.021-.476.248-.691.372-.085.049-.153.243-.293.082a.218.218,0,0,1,.021-.358,5.023,5.023,0,0,1,1.377-.96c.521-.212.729-.057.608.532-.225,1.1-.511,2.188-.758,3.284-.074.326-.347.754.01.968.317.191.639-.171.9-.386a5.679,5.679,0,0,0,2.176-3.836,1.156,1.156,0,0,1,.949-.642c.24.057.092.222.067.333-.281,1.269-.572,2.535-.853,3.8a1.431,1.431,0,0,0-.047.7,1.865,1.865,0,0,0,.7-.433c.083-.058.141-.247.291-.09a.235.235,0,0,1-.018.367,4.109,4.109,0,0,1-1.373,1.048c-.47.193-.648.067-.666-.435C466.633,243.2,466.892,242.687,466.9,242.014Z" transform="translate(-219.044 -34.222)" fill="#fff"/>
    <path id="Path_24" data-name="Path 24" d="M504.137,243.284a1.929,1.929,0,0,0,.783-.469c.073-.055.13-.192.253-.085a.214.214,0,0,1,.048.325,3.7,3.7,0,0,1-1.6,1.168c-.284.086-.473-.031-.49-.366a4.521,4.521,0,0,1,.156-1.145c.041-.2.074-.393.109-.583-.458.425-.886.832-1.325,1.227a3.506,3.506,0,0,1-1.322.847c-.583.171-.9-.055-.886-.664a17.739,17.739,0,0,1,.686-3.291,1.88,1.88,0,0,0,.143-.875c-.285.023-.435.244-.643.359-.1.053-.17.28-.329.075-.109-.14-.069-.235.061-.353a5.493,5.493,0,0,1,1.234-.894c.2-.1.442-.24.644-.08s.122.433.075.647c-.237,1.062-.5,2.119-.742,3.179-.077.331-.344.764-.015.979.346.226.67-.17.942-.395a5.569,5.569,0,0,0,2.14-3.74,1.081,1.081,0,0,1,.941-.717c.3.043.1.244.079.36-.273,1.253-.559,2.5-.835,3.754C504.2,242.764,504.18,242.99,504.137,243.284Z" transform="translate(-239.46 -34.202)" fill="#fff"/>
    <path id="Path_25" data-name="Path 25" d="M238.631,243.254a1.467,1.467,0,0,0,.661-.392c.083-.064.169-.217.3-.051.068.089.111.188.021.284a3.484,3.484,0,0,1-1.564,1.116c-.439.118-.508-.244-.479-.551a9.115,9.115,0,0,1,.23-1.187c.2-.871.421-1.739.627-2.609.048-.2.149-.446-.063-.58s-.406.043-.565.172a5.772,5.772,0,0,0-2.483,3.637c-.133.905-.188.9-1.2,1.135.318-1.634.825-3.195,1.093-4.83a1.31,1.31,0,0,0-.715.393c-.081.06-.154.165-.25.019-.059-.089-.126-.177-.029-.28a3.609,3.609,0,0,1,1.574-1.1c.308-.089.386.11.4.386a10.28,10.28,0,0,1-.28,1.713c.233.042.272-.151.363-.252a8.07,8.07,0,0,1,1.876-1.6c.333-.2.722-.417,1.085-.185s.248.687.183,1.029c-.186.982-.432,1.952-.653,2.927A2.365,2.365,0,0,0,238.631,243.254Z" transform="translate(-90.864 -34.193)" fill="#fff"/>
    <path id="Path_26" data-name="Path 26" d="M337.538,243.258a1.533,1.533,0,0,0,.662-.4c.083-.065.174-.21.3-.041.067.092.1.189.014.284a3.465,3.465,0,0,1-1.567,1.112c-.441.115-.5-.251-.473-.556a9.18,9.18,0,0,1,.231-1.187c.2-.854.41-1.705.612-2.558.051-.216.179-.481-.056-.626s-.444.063-.61.2c-1.158.968-2.252,1.992-2.415,3.616-.072.717-.388,1.116-1.192,1.086.092-.806.376-1.578.546-2.375s.362-1.589.551-2.413a1.274,1.274,0,0,0-.707.359c-.087.058-.157.231-.287.048-.063-.09-.119-.179-.023-.28a3.6,3.6,0,0,1,1.577-1.1c.313-.088.379.12.4.392a11.847,11.847,0,0,1-.273,1.712c.228.033.268-.159.361-.261a8.169,8.169,0,0,1,1.833-1.573c.349-.209.752-.45,1.127-.2s.243.721.174,1.081c-.183.964-.429,1.917-.648,2.875A2.18,2.18,0,0,0,337.538,243.258Z" transform="translate(-146.222 -34.194)" fill="#fff"/>
    <path id="Path_27" data-name="Path 27" d="M252.831,243.213c.359-.011.532-.253.756-.408.086-.059.158-.24.292-.085a.224.224,0,0,1,.011.327,3.93,3.93,0,0,1-1.541,1.159c-.366.132-.513-.058-.528-.417-.02-.5.18-.963.192-1.46-.225-.058-.261.143-.352.242a6.684,6.684,0,0,1-1.74,1.513c-.639.336-1.051.172-1.224-.532a4.281,4.281,0,0,1,3.766-5.142,1.832,1.832,0,0,1,1.16.252c.325.25-.038.689-.106,1.036C253.292,240.862,253.009,242.016,252.831,243.213Zm-3.162-.844c-.019.553.085.97.259,1.005.345.071.539-.207.755-.4a5.312,5.312,0,0,0,1.984-3.526c.025-.244.008-.339-.239-.4a1.615,1.615,0,0,0-1.787.57A4.891,4.891,0,0,0,249.669,242.369Zm2.391-.211c-.011-.007-.026-.021-.033-.018a.163.163,0,0,0-.035.035l.067.019C252.059,242.182,252.059,242.17,252.06,242.158Z" transform="translate(-98.969 -34.202)" fill="#fff"/>
    <path id="Path_28" data-name="Path 28" d="M323.208,243.23c.311,0,.484-.251.709-.4.086-.059.157-.241.292-.087a.226.226,0,0,1,.01.329,3.891,3.891,0,0,1-1.544,1.16c-.371.132-.543-.072-.514-.425.041-.487.118-.971.181-1.457-.205-.058-.243.121-.324.213a7.52,7.52,0,0,1-1.551,1.424c-.851.541-1.453.27-1.513-.736a4.35,4.35,0,0,1,2.132-4.288,3.114,3.114,0,0,1,2.727-.348c.25.083.278.136.223.382-.285,1.268-.542,2.543-.812,3.814A.7.7,0,0,0,323.208,243.23Zm-3.214-.788c0,.078,0,.149,0,.218.023.26,0,.576.247.712.284.154.482-.126.672-.288a5.424,5.424,0,0,0,2.092-3.636c.028-.275-.055-.325-.273-.38a1.59,1.59,0,0,0-1.744.553A4.943,4.943,0,0,0,319.994,242.442Zm2.4-.264c-.011-.007-.026-.021-.033-.018a.155.155,0,0,0-.035.035l.067.019C322.39,242.2,322.39,242.19,322.391,242.178Z" transform="translate(-138.331 -34.221)" fill="#fff"/>
    <path id="Path_29" data-name="Path 29" d="M194.985,243.251a1.653,1.653,0,0,0,.79-.469c.071-.056.156-.185.251-.034.051.081.122.175.027.285a3.6,3.6,0,0,1-1.629,1.209c-.366.111-.478-.148-.451-.451.043-.486.119-.969.18-1.439-.316.288-.637.571-.946.867a4.639,4.639,0,0,1-1.212.922.717.717,0,0,1-1.141-.5,3.316,3.316,0,0,1,0-1.824,4.233,4.233,0,0,1,3.015-3.285,3.394,3.394,0,0,1,1.866.1c.284.069.125.235.1.365-.264,1.273-.534,2.544-.8,3.817C195.006,242.949,195,243.084,194.985,243.251Zm-3.179-.813c0,.1-.006.168,0,.238.026.259,0,.579.259.7.282.137.48-.142.672-.3a5.433,5.433,0,0,0,2.082-3.642c.025-.238-.033-.3-.239-.358a1.608,1.608,0,0,0-1.791.557A4.95,4.95,0,0,0,191.806,242.438Zm2.4-.26c-.011-.006-.026-.02-.033-.017s-.024.022-.035.035l.068.02C194.2,242.2,194.2,242.191,194.2,242.178Z" transform="translate(-66.582 -34.222)" fill="#fff"/>
    <path id="Path_30" data-name="Path 30" d="M398.879,242.2c-.366.383-.647.683-.935.976a4.79,4.79,0,0,1-1.064.86c-.748.419-1.2.227-1.375-.616a3.605,3.605,0,0,1,.061-1.622,4.233,4.233,0,0,1,3.129-3.3,3.434,3.434,0,0,1,1.763.132c.283.067.11.247.084.373-.262,1.273-.533,2.544-.8,3.817-.027.13-.12.3.015.385s.255-.069.368-.143.215-.182.333-.259c.083-.054.156-.242.288-.054a.235.235,0,0,1-.017.328,4,4,0,0,1-1.5,1.134c-.351.131-.533-.01-.549-.388C398.654,243.317,398.851,242.834,398.879,242.2Zm-2.365.285c.023.314-.055.731.282.887.3.139.529-.2.746-.388a5.329,5.329,0,0,0,1.981-3.528c.026-.251-.007-.336-.247-.4a1.6,1.6,0,0,0-1.751.536A4.962,4.962,0,0,0,396.513,242.49Zm2.359-.329c-.006.012-.02.027-.017.036.018.051.044.052.065,0,0-.008-.006-.027-.015-.036S398.883,242.162,398.872,242.161Z" transform="translate(-181.139 -34.215)" fill="#fff"/>
    <path id="Path_31" data-name="Path 31" d="M225.591,240.43a3.782,3.782,0,0,1-2.7,3.771,1.6,1.6,0,0,1-2.108-1.263,3.866,3.866,0,0,1,2.194-4.287C224.526,238.03,225.591,238.755,225.591,240.43Zm-3.805,1.732a3.315,3.315,0,0,0,.03.41c.088.5.22.979.787,1.134.458.124.895-.118,1.242-.689a4.759,4.759,0,0,0,.654-2.924,1.116,1.116,0,0,0-.725-1.118c-.459-.142-.9.091-1.276.632A4.738,4.738,0,0,0,221.786,242.163Z" transform="translate(-83.353 -34.217)" fill="#fff"/>
    <path id="Path_32" data-name="Path 32" d="M420.31,242.514a3.97,3.97,0,0,1,2.762-4.018c.99-.269,1.768.279,1.621,1.152a1.481,1.481,0,0,1-.643.931,6.068,6.068,0,0,1-2.249.99c-.393.1-.5.258-.476.645.089,1.182.774,1.585,1.831,1.032a6.7,6.7,0,0,0,.822-.566c.1-.073.177-.189.3-.033.081.1.137.192.011.313a3.845,3.845,0,0,1-2.409,1.285A1.314,1.314,0,0,1,420.356,243C420.323,242.788,420.316,242.576,420.31,242.514Zm1.107-1.263a4.425,4.425,0,0,0,1.955-.873.852.852,0,0,0,.223-1.174c-.257-.329-.714-.32-1.175.048A3.086,3.086,0,0,0,421.417,241.252Z" transform="translate(-195.057 -34.215)" fill="#fff"/>
    <path id="Path_33" data-name="Path 33" d="M489.67,244.251c-.962,0-1.454-.359-1.6-1.044a4,4,0,0,1,2.673-4.708c.989-.277,1.768.27,1.626,1.144a1.465,1.465,0,0,1-.639.932,6.45,6.45,0,0,1-2.35,1.021.43.43,0,0,0-.386.506c.018,1.256.77,1.716,1.879,1.121a6.717,6.717,0,0,0,.777-.539c.1-.071.169-.192.3-.043a.215.215,0,0,1-.019.352A3.819,3.819,0,0,1,489.67,244.251Zm-.575-3a4.755,4.755,0,0,0,1.836-.776c.5-.382.623-.919.329-1.279s-.829-.293-1.3.163A3.2,3.2,0,0,0,489.1,241.25Z" transform="translate(-232.924 -34.214)" fill="#fff"/>
    <path id="Path_34" data-name="Path 34" d="M263.785,239.138a1.855,1.855,0,0,0,.836-.488c.082-.06.16-.222.3-.055a.208.208,0,0,1-.013.32,4.376,4.376,0,0,1-1.507,1.125c-.447.176-.618.062-.628-.425a12.449,12.449,0,0,1,.449-2.639c.294-1.515.6-3.027.958-4.529.12-.511-.009-.688-.506-.685-.114,0-.31.093-.333-.116s.18-.217.329-.252c.426-.1.861-.179,1.276-.313s.455.029.381.375c-.311,1.44-.613,2.881-.918,4.322q-.311,1.467-.622,2.934A.541.541,0,0,0,263.785,239.138Z" transform="translate(-106.898 -30.077)" fill="#fff"/>
    <path id="Path_35" data-name="Path 35" d="M205.893,236.936a4.092,4.092,0,0,1-.516,0c-.139-.019-.379.107-.4-.108-.013-.174.166-.42.358-.383.779.15.761-.427.875-.895a1.979,1.979,0,0,1,1.189-1.1c-.129.583-.227,1.127-.374,1.657-.077.276-.011.333.251.321.346-.017.694,0,1.064,0-.092.412-.358.439-.678.453-.846.038-.841.052-1.013.886-.187.91-.388,1.818-.572,2.729-.039.194-.185.446.039.578.2.119.389-.085.56-.2a5.066,5.066,0,0,0,.464-.347c.074-.06.152-.115.222-.03s.147.166.042.276a3.757,3.757,0,0,1-1.789,1.243c-.35.086-.518-.115-.557-.453a4.534,4.534,0,0,1,.15-1.46C205.43,239.073,205.654,238.046,205.893,236.936Z" transform="translate(-74.56 -31.988)" fill="#fff"/>
    <path id="Path_36" data-name="Path 36" d="M478.517,244.26a1.385,1.385,0,0,1-1.2-.544.548.548,0,0,1,.108-.834c.3-.248.467-.045.637.181a1.354,1.354,0,0,0,.267.251.955.955,0,0,0,1.373.008c.292-.36.207-.806-.265-1.251-.281-.265-.6-.486-.875-.761a1.373,1.373,0,0,1,.018-2.134,2.129,2.129,0,0,1,1.74-.725c.57.059.948.571.721.965-.159.274-.359.454-.651.114a1.5,1.5,0,0,0-.4-.333.68.68,0,0,0-.915.086.74.74,0,0,0-.045.927,2.75,2.75,0,0,0,.752.731c.6.47,1.176.952.872,1.84A2.476,2.476,0,0,1,478.517,244.26Z" transform="translate(-226.877 -34.222)" fill="#fff"/>
    <path id="Path_37" data-name="Path 37" d="M409.422,242.431a4,4,0,0,1,2.885-3.934,1.369,1.369,0,0,1,1.116.124.508.508,0,0,1,.295.517.674.674,0,0,1-.41.514c-.258.123-.329-.129-.454-.25a.939.939,0,0,0-1.542.077,4.037,4.037,0,0,0-.755,3.233c.133.7.58.92,1.253.7a3.171,3.171,0,0,0,1.115-.681c.082-.074.155-.219.291-.048a.207.207,0,0,1,0,.318,3.445,3.445,0,0,1-2.57,1.252,1.214,1.214,0,0,1-1.107-.976A2.163,2.163,0,0,1,409.422,242.431Z" transform="translate(-188.958 -34.218)" fill="#fff"/>
    <path id="Path_38" data-name="Path 38" d="M303.176,239.405a1.578,1.578,0,0,0-.692.389c-.085.057-.152.236-.3.075a.212.212,0,0,1,0-.325,4.241,4.241,0,0,1,1.424-1.067c.314-.129.5-.007.518.357a10.3,10.3,0,0,1-.141,1.382c.372-.491.668-.9.981-1.289a1.382,1.382,0,0,1,.58-.446.622.622,0,0,1,.789.241c.2.285.066.535-.12.767a.415.415,0,0,1-.669.086c-.329-.244-.555.023-.746.258a5.869,5.869,0,0,0-1.307,2.944,3.345,3.345,0,0,0-.105.621c.039.665-.457.725-.905.82-.316.067-.227-.15-.187-.327.242-1.079.488-2.158.712-3.241A3.486,3.486,0,0,0,303.176,239.405Z" transform="translate(-128.916 -34.215)" fill="#fff"/>
    <path id="Path_39" data-name="Path 39" d="M295.835,239.454a1.881,1.881,0,0,0-.587.34c-.072.048-.141.191-.253.043-.083-.11-.116-.219,0-.324a5,5,0,0,1,1.623-1.055c.376-.128.461.129.428.44a19.366,19.366,0,0,1-.5,2.2c-.161.714-.34,1.424-.526,2.2a1.875,1.875,0,0,0,.78-.439c.074-.055.143-.18.26-.06.082.084.119.188.032.28a3.616,3.616,0,0,1-1.662,1.154c-.337.089-.423-.144-.412-.435a14.343,14.343,0,0,1,.466-2.263c.136-.669.3-1.331.458-2-.01-.043-.02-.087-.029-.13Z" transform="translate(-124.89 -34.213)" fill="#fff"/>
    <path id="Path_40" data-name="Path 40" d="M214,239.454a1.835,1.835,0,0,0-.588.339c-.072.048-.141.192-.252.044-.082-.109-.119-.219,0-.324a5.017,5.017,0,0,1,1.623-1.055c.376-.128.462.126.429.438a19.2,19.2,0,0,1-.5,2.206c-.162.713-.34,1.423-.526,2.2a1.855,1.855,0,0,0,.78-.438c.074-.056.143-.179.26-.061.082.084.12.189.033.28a3.63,3.63,0,0,1-1.662,1.155c-.337.089-.424-.143-.412-.434a14.251,14.251,0,0,1,.466-2.263c.135-.669.3-1.331.457-2l-.029-.13Z" transform="translate(-79.095 -34.213)" fill="#fff"/>
    <path id="Path_41" data-name="Path 41" d="M367.441,187.875a1.12,1.12,0,1,1-2.239.031,1.091,1.091,0,0,1,1.105-1.151A1.075,1.075,0,0,1,367.441,187.875Z" transform="translate(-164.219 -5.299)" fill="#fff"/>
    <path id="Path_42" data-name="Path 42" d="M241.207,187.915a1.12,1.12,0,1,1-2.239-.049,1.092,1.092,0,0,1,1.146-1.111A1.078,1.078,0,0,1,241.207,187.915Z" transform="translate(-93.579 -5.3)" fill="#fff"/>
    <path id="Path_43" data-name="Path 43" d="M298.476,234.42c-.248-.007-.429-.192-.432-.554a.687.687,0,0,1,.652-.736c.384-.013.529.2.532.553A.683.683,0,0,1,298.476,234.42Z" transform="translate(-126.638 -31.25)" fill="#fff"/>
    <path id="Path_44" data-name="Path 44" d="M216.9,233.129c.388.008.5.246.494.589a.645.645,0,0,1-.672.7c-.375-.017-.519-.238-.51-.588A.68.68,0,0,1,216.9,233.129Z" transform="translate(-80.844 -31.25)" fill="#fff"/>
    <path id="Path_45" data-name="Path 45" d="M101.194,201.711a.12.12,0,0,1,.053.194l-.138-.108Z" transform="translate(-16.435 -13.669)" fill="#fff"/>
  </g>
</svg>
